<svg width="32" height="36" viewBox="0 0 32 36" fill="none" xmlns="http://www.w3.org/2000/svg">
<path d="M17.8893 17.8867L14.5024 21.7617L12.7132 19.7148C12.6807 19.6775 12.639 19.6473 12.5915 19.6265C12.544 19.6057 12.4918 19.5949 12.439 19.5949C12.3861 19.5949 12.334 19.6057 12.2864 19.6265C12.2389 19.6473 12.1973 19.6775 12.1647 19.7148L7.82018 24.6836C7.77998 24.7297 7.75504 24.7849 7.74821 24.8431C7.74137 24.9013 7.75292 24.96 7.78153 25.0126C7.81014 25.0651 7.85466 25.1094 7.90999 25.1404C7.96532 25.1713 8.02924 25.1876 8.09443 25.1875H24.1101C24.4017 25.1875 24.5628 24.8867 24.3843 24.6836L18.4421 17.8867C18.4091 17.8493 18.3671 17.8191 18.3192 17.7983C18.2713 17.7775 18.2189 17.7667 18.1657 17.7667C18.1125 17.7667 18.06 17.7775 18.0121 17.7983C17.9643 17.8191 17.9223 17.8493 17.8893 17.8867ZM9.48312 15.2656C9.48312 15.68 9.66658 16.0775 9.99313 16.3705C10.3197 16.6635 10.7626 16.8281 11.2244 16.8281C11.6862 16.8281 12.1291 16.6635 12.4557 16.3705C12.7823 16.0775 12.9657 15.68 12.9657 15.2656C12.9657 14.8512 12.7823 14.4538 12.4557 14.1608C12.1291 13.8677 11.6862 13.7031 11.2244 13.7031C10.7626 13.7031 10.3197 13.8677 9.99313 14.1608C9.66658 14.4538 9.48312 14.8512 9.48312 15.2656ZM31.0143 9.27344L21.6461 0.867188C21.3849 0.632813 21.0323 0.5 20.6623 0.5H2.16965C1.39913 0.5 0.776611 1.05859 0.776611 1.75V34.25C0.776611 34.9414 1.39913 35.5 2.16965 35.5H30.0305C30.801 35.5 31.4235 34.9414 31.4235 34.25V10.1602C31.4235 9.82812 31.2755 9.50781 31.0143 9.27344ZM28.2108 10.7344H20.018V3.38281L28.2108 10.7344ZM28.2892 32.6875H3.91095V3.3125H17.0578V11.75C17.0578 12.1851 17.2504 12.6024 17.5933 12.9101C17.9362 13.2178 18.4012 13.3906 18.8861 13.3906H28.2892V32.6875Z" fill="#5669FF"/>
</svg>
