<svg width="34" height="30" viewBox="0 0 34 30" fill="none" xmlns="http://www.w3.org/2000/svg">
<g clip-path="url(#clip0_327_2706)">
<path d="M11.4735 5.54067V20.2837C10.4275 19.4296 9.03823 18.9085 7.51619 18.9085C4.27049 18.9085 1.62988 21.278 1.62988 24.1904C1.62988 27.1028 4.27049 29.4723 7.51619 29.4723C10.7579 29.4723 13.3955 27.1087 13.4022 24.2014H13.4025V13.6665L30.3067 9.10826V16.7303C29.2607 15.8764 27.8715 15.3551 26.3494 15.3551C23.1037 15.3551 20.4631 17.7246 20.4631 20.637C20.4631 23.5494 23.1037 25.9189 26.3494 25.9189C29.5841 25.9189 32.2174 23.5654 32.2352 20.6665H32.2357V-0.0579834L11.4735 5.54067Z" fill="#B6B6B6"/>
</g>
<defs>
<clipPath id="clip0_327_2706">
<rect width="32.9094" height="29.5302" fill="white" transform="translate(0.473145)"/>
</clipPath>
</defs>
</svg>
