<svg width="40" height="35" viewBox="0 0 40 35" fill="none" xmlns="http://www.w3.org/2000/svg">
<g clip-path="url(#clip0_327_2695)">
<path d="M19.0236 4.68607C18.7691 3.18217 18.2544 1.6598 17.5047 0.172302C13.6115 0.663533 10.0876 2.18583 7.28662 4.42214L16.9633 13.1052C18.8539 10.9477 19.5846 8.00089 19.0236 4.68607V4.68607Z" fill="white"/>
<path d="M16.9735 16.0148C14.6625 17.727 11.6891 18.6216 8.34842 18.6217C7.46334 18.6217 6.55281 18.5589 5.62172 18.4321C3.99508 18.2104 2.35542 17.7946 0.746301 17.2013C0.744549 17.3007 0.742188 17.4001 0.742188 17.5C0.742188 21.9635 2.60552 26.0359 5.67085 29.1273L18.6287 17.5L16.9735 16.0148Z" fill="white"/>
<path d="M15.3479 14.554L5.67121 5.87103C3.179 8.3844 1.4825 11.5464 0.935059 15.0398C2.59285 15.7125 4.2895 16.1745 5.96528 16.4029C9.65964 16.9064 12.9436 16.2505 15.3479 14.554V14.554Z" fill="white"/>
<path d="M34.5251 18.5945C30.831 18.0909 27.5469 18.7468 25.1426 20.4432L34.8192 29.1263C37.3114 26.6129 39.0079 23.4509 39.5554 19.9575C37.8978 19.2848 36.2012 18.8229 34.5251 18.5945Z" fill="white"/>
<path d="M21.8993 20.4344L20.2445 18.9495L7.28662 30.5768C10.7318 33.3275 15.2702 34.9994 20.2445 34.9994C20.3558 34.9994 20.4666 34.9973 20.5774 34.9957C19.9163 33.5518 19.4528 32.0805 19.2057 30.6209C18.5308 26.632 19.4856 23.0575 21.8993 20.4344V20.4344Z" fill="white"/>
<path d="M18.5896 14.5644L20.2444 16.0493L33.2023 4.42197C29.7571 1.67132 25.2187 -0.000610352 20.2444 -0.000610352C20.1331 -0.000610352 20.0224 0.00150879 19.9115 0.00314941C20.5726 1.44697 21.0361 2.91813 21.2832 4.37794C21.9581 8.36678 21.0033 11.9413 18.5896 14.5644Z" fill="white"/>
<path d="M21.4651 30.3123C21.7196 31.816 22.2345 33.3385 22.9841 34.8261C26.8773 34.3349 30.4011 32.8126 33.2021 30.5763L23.5254 21.8932C21.6348 24.0507 20.9041 26.9975 21.4651 30.3123Z" fill="white"/>
<path d="M23.5159 18.9833C26.4392 16.8173 30.4227 15.9607 34.868 16.5663C36.4949 16.788 38.1345 17.204 39.7434 17.7971C39.7453 17.6977 39.7476 17.5983 39.7476 17.4983C39.7476 13.0348 37.8843 8.96245 34.8189 5.87103L21.8611 17.4984L23.5159 18.9833Z" fill="white"/>
</g>
<defs>
<clipPath id="clip0_327_2695">
<rect width="39.0052" height="35" fill="white" transform="translate(0.742188)"/>
</clipPath>
</defs>
</svg>
