<svg width="20" height="16" viewBox="0 0 20 16" fill="none" xmlns="http://www.w3.org/2000/svg">
<path d="M19.2821 3.53908C18.9903 2.9329 18.5696 2.38359 18.0436 1.92189C17.5171 1.45881 16.8964 1.09082 16.2152 0.837904C15.5088 0.57461 14.7512 0.43984 13.9863 0.44142C12.9133 0.44142 11.8663 0.705092 10.9565 1.20314C10.7388 1.32228 10.532 1.45314 10.3361 1.59572C10.1402 1.45314 9.93346 1.32228 9.7158 1.20314C8.80597 0.705092 7.75901 0.44142 6.68593 0.44142C5.91323 0.44142 5.16447 0.574233 4.45706 0.837904C3.7736 1.09181 3.15762 1.45705 2.6287 1.92189C2.10195 2.38307 1.68116 2.93251 1.3902 3.53908C1.08765 4.16994 0.933105 4.83986 0.933105 5.52931C0.933105 6.1797 1.08112 6.85744 1.37496 7.54689C1.62092 8.12306 1.97353 8.72072 2.42409 9.32423C3.13803 10.2793 4.11969 11.2754 5.3386 12.2852C7.35851 13.959 9.35883 15.1152 9.44372 15.1621L9.95958 15.459C10.1881 15.5899 10.482 15.5899 10.7105 15.459L11.2264 15.1621C11.3113 15.1133 13.3094 13.959 15.3315 12.2852C16.5504 11.2754 17.5321 10.2793 18.246 9.32423C18.6966 8.72072 19.0513 8.12306 19.2951 7.54689C19.589 6.85744 19.737 6.1797 19.737 5.52931C19.7392 4.83986 19.5846 4.16994 19.2821 3.53908Z" fill="white"/>
</svg>
