<svg width="26" height="26" viewBox="0 0 26 26" fill="none" xmlns="http://www.w3.org/2000/svg">
<path opacity="0.4" fill-rule="evenodd" clip-rule="evenodd" d="M8.49048 4.35192H17.0475V2.56415H8.49048V4.35192ZM6.54391 2.63757V2.64647C5.87594 2.70098 5.21513 2.82001 4.57225 2.99912V2.99245C4.55314 2.99966 4.53514 3.00521 4.51788 3.01054C4.4952 3.01753 4.47379 3.02414 4.45276 3.03361C4.40137 3.04474 4.35119 3.06142 4.30339 3.08256C4.16238 3.12372 4.02138 3.17267 3.88874 3.22274C3.85349 3.23497 3.81824 3.24916 3.78299 3.26334C3.74774 3.27753 3.71249 3.29171 3.67724 3.30395C3.62884 3.32453 3.57836 3.34706 3.52787 3.36958C3.47738 3.39211 3.4269 3.41464 3.3785 3.43522L3.13951 3.55871C3.09532 3.57893 3.05442 3.60265 3.01269 3.62685L3.01268 3.62685C2.98783 3.64126 2.96268 3.65584 2.93637 3.66996C2.57669 3.87799 2.2433 4.12163 1.94218 4.39864L1.92425 4.41532C1.8847 4.4567 1.84532 4.49684 1.80647 4.53643C1.74085 4.60331 1.67675 4.66864 1.61596 4.73572L1.59803 4.7513C0.620569 5.96169 0.130641 7.45354 0.215483 8.96541V9.44489H2.14532V8.96096C2.14532 6.8539 2.89335 5.54228 4.55791 4.87033C5.19362 4.62892 5.86518 4.47985 6.54869 4.42534H6.56661V2.64535L6.54391 2.63757ZM23.8849 4.72905L23.8933 4.74462C24.8696 5.95613 25.3571 7.44909 25.2711 8.96096V9.4449H23.3424V8.94872C23.3831 8.05651 23.1835 7.16874 22.7605 6.36663C22.3542 5.68023 21.7042 5.14734 20.9191 4.8581C20.2941 4.61669 19.6321 4.4665 18.957 4.4131V2.64202C19.625 2.69764 20.2858 2.81556 20.9298 2.99468V2.98578C20.966 3.00051 20.9936 3.00927 21.041 3.02431L21.0493 3.02694C21.0713 3.03392 21.0918 3.04089 21.1121 3.04779C21.1404 3.05739 21.1681 3.06683 21.1987 3.07589C21.3308 3.11478 21.4544 3.16063 21.5815 3.2078L21.6038 3.21606C21.6625 3.23455 21.7177 3.25748 21.7675 3.27814C21.7836 3.28483 21.7992 3.29129 21.8141 3.29727C21.9193 3.33843 22.0268 3.38738 22.1128 3.42855C22.1702 3.45526 22.2261 3.48385 22.2785 3.51067C22.3069 3.52517 22.3342 3.53915 22.3602 3.55203C22.403 3.57325 22.4402 3.59595 22.476 3.61777C22.5022 3.63372 22.5275 3.64919 22.5538 3.66328C22.9146 3.87243 23.2516 4.11718 23.5563 4.39196L23.5671 4.40865C23.6794 4.50989 23.7858 4.61669 23.8849 4.72905Z" fill="#5669FF"/>
<path d="M19.0121 1.39616V5.33558C19.0121 5.83193 18.5633 6.23396 18.0091 6.23396C17.455 6.23396 17.0061 5.83193 17.0061 5.33558V1.40514C17.0011 0.908786 17.4475 0.50339 18.0016 0.500021C18.5558 0.496652 19.0084 0.89531 19.0121 1.39167V1.39616Z" fill="#5669FF"/>
<path d="M8.48083 1.41043V5.34011C8.48083 5.83862 8.03145 6.24281 7.47722 6.24281C6.92298 6.24281 6.47485 5.83862 6.47485 5.34011V1.41043C6.47485 0.911923 6.92298 0.50885 7.47722 0.50885C8.03145 0.50885 8.48083 0.911923 8.48083 1.41043" fill="#5669FF"/>
<path fill-rule="evenodd" clip-rule="evenodd" d="M0.206055 19.1377V9.44489H25.2808V19.1377C25.2808 23.3645 22.6502 25.5 17.4367 25.5H8.03817C2.83669 25.5 0.206055 23.3645 0.206055 19.1377ZM5.86195 14.8335C5.86195 15.4199 6.37611 15.8957 7.00986 15.8957C7.65556 15.8957 8.16973 15.4088 8.15777 14.8224C8.15777 14.236 7.6436 13.7602 7.02182 13.7602H7.00986C6.37611 13.7602 5.86195 14.247 5.86195 14.8335ZM11.5895 14.8335C11.5895 15.4199 12.1157 15.8957 12.7494 15.8957C13.3832 15.8957 13.8973 15.4199 13.8973 14.8224C13.8973 14.247 13.3832 13.7712 12.7494 13.7602H12.7375C12.1037 13.7712 11.5895 14.247 11.5895 14.8335ZM18.477 15.8957C17.8433 15.8957 17.3291 15.4199 17.3291 14.8335C17.3291 14.247 17.8313 13.7712 18.477 13.7712C19.1108 13.7712 19.6249 14.247 19.6249 14.8335C19.6249 15.4199 19.1108 15.8957 18.477 15.8957ZM18.477 20.4323C17.8433 20.4323 17.3291 19.9565 17.3172 19.37C17.3172 18.7836 17.8313 18.3078 18.4651 18.3078H18.477C19.1108 18.3078 19.625 18.7836 19.625 19.37C19.625 19.9565 19.1108 20.4323 18.477 20.4323ZM12.7494 20.4323C12.1157 20.4323 11.5895 19.9565 11.5895 19.3701C11.5895 18.7836 12.1037 18.3078 12.7375 18.2968H12.7494C13.3832 18.3078 13.8854 18.7836 13.8973 19.359C13.8973 19.9565 13.3832 20.4323 12.7494 20.4323ZM7.00983 20.4323C6.37609 20.4323 5.86192 19.9565 5.86192 19.3701C5.84996 18.7836 6.36414 18.2968 7.00983 18.2968C7.64358 18.2968 8.15775 18.7725 8.15775 19.359C8.15775 19.9454 7.64358 20.4323 7.00983 20.4323Z" fill="#5669FF"/>
</svg>
