<svg width="21" height="26" viewBox="0 0 21 26" fill="none" xmlns="http://www.w3.org/2000/svg">
<path fill-rule="evenodd" clip-rule="evenodd" d="M5.57863 1.67096C8.62223 0.0840931 12.3633 0.111829 15.3783 1.74362C18.3637 3.40864 20.1782 6.38022 20.1613 9.5768C20.0918 12.7524 18.1462 15.7375 15.7142 18.0451C14.3105 19.383 12.7402 20.566 11.0355 21.57C10.8599 21.6611 10.6676 21.7221 10.468 21.75C10.2759 21.7427 10.0889 21.6917 9.92371 21.6018C7.32105 20.0932 5.03773 18.1675 3.18359 15.9175C1.6321 14.0392 0.750647 11.77 0.658937 9.41802C0.656923 6.21531 2.53504 3.25784 5.57863 1.67096ZM7.3374 10.7434C7.84937 11.876 9.05783 12.6147 10.3985 12.6147C11.2768 12.6204 12.1211 12.3047 12.7433 11.738C13.3655 11.1713 13.7138 10.4007 13.7107 9.59791C13.7154 8.37248 12.9114 7.26533 11.6741 6.79341C10.4368 6.32148 9.01028 6.57788 8.0606 7.44287C7.11093 8.30787 6.82543 9.61084 7.3374 10.7434Z" fill="#5669FF"/>
<path opacity="0.4" d="M10.4103 25.5C14.2571 25.5 17.3755 24.9404 17.3755 24.25C17.3755 23.5596 14.2571 23 10.4103 23C6.5635 23 3.44507 23.5596 3.44507 24.25C3.44507 24.9404 6.5635 25.5 10.4103 25.5Z" fill="#5669FF"/>
</svg>
