<svg width="24" height="24" viewBox="0 0 24 24" fill="none" xmlns="http://www.w3.org/2000/svg">
<path d="M12 8.00102C11.4748 8.00093 10.9548 8.10429 10.4696 8.30523C9.98433 8.50616 9.54345 8.80072 9.17208 9.17208C8.80072 9.54345 8.50616 9.98433 8.30523 10.4696C8.10429 10.9548 8.00093 11.4748 8.00102 12C8.00093 12.5252 8.10429 13.0453 8.30523 13.5305C8.50616 14.0157 8.80072 14.4566 9.17208 14.828C9.54345 15.1993 9.98433 15.4939 10.4696 15.6948C10.9548 15.8958 11.4748 15.9991 12 15.999C12.5252 15.9991 13.0453 15.8958 13.5305 15.6948C14.0157 15.4939 14.4566 15.1993 14.828 14.828C15.1993 14.4566 15.4939 14.0157 15.6948 13.5305C15.8958 13.0453 15.9991 12.5252 15.999 12C15.9991 11.4748 15.8958 10.9548 15.6948 10.4696C15.4939 9.98433 15.1993 9.54345 14.828 9.17208C14.4566 8.80072 14.0157 8.50616 13.5305 8.30523C13.0453 8.10429 12.5252 8.00093 12 8.00102ZM20.9415 11.001C20.7152 8.97242 19.8056 7.08111 18.3623 5.63777C16.9189 4.19442 15.0276 3.28487 12.999 3.05852V0.999023H11.001V3.05852C8.97242 3.28487 7.08111 4.19442 5.63777 5.63777C4.19442 7.08111 3.28487 8.97242 3.05852 11.001H0.999023V12.999H3.05852C3.28487 15.0276 4.19442 16.9189 5.63777 18.3623C7.08111 19.8056 8.97242 20.7152 11.001 20.9415V23.001H12.999V20.9415C15.0276 20.7152 16.9189 19.8056 18.3623 18.3623C19.8056 16.9189 20.7152 15.0276 20.9415 12.999H23.001V11.001H20.9415ZM12 18.999C11.0807 18.9998 10.1702 18.8193 9.32069 18.4679C8.47118 18.1164 7.6993 17.6009 7.04922 16.9508C6.39915 16.3007 5.88364 15.5289 5.53218 14.6794C5.18073 13.8298 5.00023 12.9194 5.00102 12C5.00023 11.0807 5.18073 10.1702 5.53218 9.32069C5.88364 8.47118 6.39915 7.6993 7.04922 7.04922C7.6993 6.39915 8.47118 5.88364 9.32069 5.53218C10.1702 5.18073 11.0807 5.00023 12 5.00102C12.9194 5.00023 13.8298 5.18073 14.6794 5.53218C15.5289 5.88364 16.3007 6.39915 16.9508 7.04922C17.6009 7.6993 18.1164 8.47118 18.4679 9.32069C18.8193 10.1702 18.9998 11.0807 18.999 12C18.9998 12.9194 18.8193 13.8298 18.4679 14.6794C18.1164 15.5289 17.6009 16.3007 16.9508 16.9508C16.3007 17.6009 15.5289 18.1164 14.6794 18.4679C13.8298 18.8193 12.9194 18.9998 12 18.999Z" fill="white"/>
</svg>
