<svg width="30" height="30" viewBox="0 0 30 30" fill="none" xmlns="http://www.w3.org/2000/svg">
<g clip-path="url(#clip0_327_2709)">
<path d="M20.2848 18.3436C23.0981 18.2939 23.7172 14.4238 21.0625 13.5021L17.9973 16.8263C18.3798 17.7269 19.2816 18.3436 20.2848 18.3436Z" fill="white"/>
<path d="M29.3637 13.3208C28.9697 10.9566 27.862 9.13177 26.1422 7.99234C25.3411 8.86183 23.134 11.2546 22.301 12.1583C23.6412 12.8847 24.4991 14.2912 24.4991 15.8605C24.5085 19.4975 20.1196 21.4289 17.445 18.973C17.19 19.5372 16.8323 20.0564 16.3817 20.507C14.5959 22.4432 9.06401 22.9112 6.70265 22.8424C6.63365 20.4752 7.10362 14.946 9.03811 13.1633C10.0252 12.1768 11.3129 11.6708 12.6092 11.646C14.0279 10.3334 15.9952 8.51296 17.4081 7.20541C15.4456 7.72257 12.571 9.09173 11.6942 7.79907C11.2839 6.8307 13.1493 4.58051 11.6775 2.69212C10.4713 1.17763 7.77181 1.46211 6.24631 2.53808C-1.18127 7.66632 -2.17445 18.9335 4.30974 25.2015C12.2475 33.2003 26.0944 29.5765 29.1364 18.737C29.3016 18.0548 29.7744 15.8183 29.3637 13.3208V13.3208Z" fill="white"/>
<path d="M16.3816 13.1636C16.8639 13.6459 17.2395 14.2061 17.4968 14.8159C18.4792 13.7518 23.6665 8.12399 24.5278 7.19064L29.1334 2.19561C29.6364 1.64984 29.6497 0.842142 29.1639 0.355793C28.677 -0.130556 27.8682 -0.116709 27.3224 0.388101L20.5868 6.62179C19.1243 7.97485 16.2153 10.6679 14.7229 12.0489C15.3264 12.3016 15.8912 12.6732 16.3816 13.1636V13.1636Z" fill="white"/>
<path d="M14.2343 13.726C12.9203 13.0865 11.3278 13.324 10.2622 14.386C9.16153 15.3591 8.53661 19.0627 8.47314 21.0714C10.4877 21.0059 14.1823 20.3846 15.158 19.2823C15.8122 18.6281 16.1722 17.7587 16.1722 16.8344C16.172 15.9089 15.8116 15.0394 15.158 14.3865V14.386C14.8811 14.1085 14.5684 13.8886 14.2343 13.726V13.726Z" fill="white"/>
</g>
<defs>
<clipPath id="clip0_327_2709">
<rect width="29.5302" height="29.5302" fill="white"/>
</clipPath>
</defs>
</svg>
