<svg width="25" height="24" viewBox="0 0 25 24" fill="none" xmlns="http://www.w3.org/2000/svg">
<path d="M12.1623 2.28943C6.84149 2.28943 2.51257 6.61834 2.51257 11.9391C2.51257 17.2599 6.84149 21.5889 12.1623 21.5889C17.4831 21.5889 21.812 17.2599 21.812 11.9391C21.812 6.61834 17.4831 2.28943 12.1623 2.28943ZM13.6469 16.3929H10.6777C10.4808 16.3929 10.292 16.3146 10.1528 16.1754C10.0136 16.0362 9.93543 15.8474 9.93543 15.6506C9.93543 15.4537 10.0136 15.2649 10.1528 15.1257C10.292 14.9865 10.4808 14.9083 10.6777 14.9083H13.6469C13.8437 14.9083 14.0325 14.9865 14.1717 15.1257C14.3109 15.2649 14.3891 15.4537 14.3891 15.6506C14.3891 15.8474 14.3109 16.0362 14.1717 16.1754C14.0325 16.3146 13.8437 16.3929 13.6469 16.3929ZM15.8737 13.4237H8.45086C8.25399 13.4237 8.06519 13.3455 7.92598 13.2063C7.78678 13.0671 7.70857 12.8783 7.70857 12.6814C7.70857 12.4846 7.78678 12.2958 7.92598 12.1565C8.06519 12.0173 8.25399 11.9391 8.45086 11.9391H15.8737C16.0706 11.9391 16.2594 12.0173 16.3986 12.1565C16.5378 12.2958 16.616 12.4846 16.616 12.6814C16.616 12.8783 16.5378 13.0671 16.3986 13.2063C16.2594 13.3455 16.0706 13.4237 15.8737 13.4237ZM17.3583 10.4546H6.96629C6.76942 10.4546 6.58062 10.3764 6.44141 10.2372C6.30221 10.098 6.224 9.90915 6.224 9.71228C6.224 9.51542 6.30221 9.32661 6.44141 9.18741C6.58062 9.0482 6.76942 8.97 6.96629 8.97H17.3583C17.5551 8.97 17.744 9.0482 17.8832 9.18741C18.0224 9.32661 18.1006 9.51542 18.1006 9.71228C18.1006 9.90915 18.0224 10.098 17.8832 10.2372C17.744 10.3764 17.5551 10.4546 17.3583 10.4546Z" fill="#A29EF0"/>
</svg>
