<svg width="28" height="28" viewBox="0 0 28 28" fill="none" xmlns="http://www.w3.org/2000/svg">
<path d="M14.0001 21.2917C18.0834 21.2917 22.4584 19.25 22.4584 14C22.4584 8.75001 18.0834 6.70834 14.0001 6.70834C9.91675 6.70834 5.54175 8.75001 5.54175 14C5.54175 15.2015 5.77087 16.2349 6.17318 17.1142C6.42396 17.6624 6.56463 18.2669 6.45354 18.8593L6.14765 20.4908C5.99644 21.2972 6.7029 22.0037 7.50934 21.8524L11.2513 21.1508C11.5454 21.0957 11.847 21.1005 12.1425 21.1474C12.7576 21.2449 13.3822 21.2917 14.0001 21.2917Z" stroke="#A1A1AA" stroke-width="1.5" stroke-linecap="round" stroke-linejoin="round"/>
<path d="M11.0834 14C11.0834 14.3222 10.8222 14.5834 10.5001 14.5834C10.1779 14.5834 9.91675 14.3222 9.91675 14C9.91675 13.6779 10.1779 13.4167 10.5001 13.4167C10.8222 13.4167 11.0834 13.6779 11.0834 14Z" stroke="#A1A1AA" stroke-linecap="round" stroke-linejoin="round"/>
<path d="M14.5834 14C14.5834 14.3222 14.3222 14.5834 14.0001 14.5834C13.6779 14.5834 13.4167 14.3222 13.4167 14C13.4167 13.6779 13.6779 13.4167 14.0001 13.4167C14.3222 13.4167 14.5834 13.6779 14.5834 14Z" stroke="#A1A1AA" stroke-linecap="round" stroke-linejoin="round"/>
<path d="M18.0834 14C18.0834 14.3222 17.8222 14.5834 17.5001 14.5834C17.1779 14.5834 16.9167 14.3222 16.9167 14C16.9167 13.6779 17.1779 13.4167 17.5001 13.4167C17.8222 13.4167 18.0834 13.6779 18.0834 14Z" stroke="#A1A1AA" stroke-linecap="round" stroke-linejoin="round"/>
</svg>
