<svg width="28" height="24" viewBox="0 0 28 24" fill="none" xmlns="http://www.w3.org/2000/svg">
<path d="M18.3401 21V19.8C18.3401 18.1198 18.3401 17.2798 17.9757 16.638C17.6552 16.0735 17.1437 15.6146 16.5146 15.327C15.7995 15 14.8632 15 12.9908 15H8.08732C6.21489 15 5.27868 15 4.56351 15.327C3.93443 15.6146 3.42297 16.0735 3.10243 16.638C2.73804 17.2798 2.73804 18.1198 2.73804 19.8V21M18.3401 6L20.569 8L25.0267 4M14.4396 7.5C14.4396 9.433 12.6933 11 10.5391 11C8.38487 11 6.63855 9.433 6.63855 7.5C6.63855 5.567 8.38487 4 10.5391 4C12.6933 4 14.4396 5.567 14.4396 7.5Z" stroke="#5669FF" stroke-width="2" stroke-linecap="round" stroke-linejoin="round"/>
</svg>
